<?xml version="1.0" encoding="utf-8"?>
<svg class="chat-product-colours-white-text" data-name="Teamwork Chat" width="143px" height="30px" viewBox="0 0 787.56 138.952" xmlns="http://www.w3.org/2000/svg">
  <title>chat-product-colours-white-text</title>
  <path class="text-teamwork" d="M193.03,87.5V63.82h-7.54V53.37h7.54V40.93h12V53.37h9.23V63.83h-9.23V84.27c0,2.92,1.51,5.09,4.15,5.09a6,6,0,0,0,4.15-1.41l2.54,9.14c-1.79,1.6-5,2.92-10,2.92C197.46,100,193.03,95.67,193.03,87.5Zm26.48-11.43c0-13.19,9.8-23.83,23.55-23.83s22.8,10.17,22.8,25v2.83H232.04c.85,5.56,5.37,10.17,13.09,10.17,3.86,0,9.14-1.6,12.06-4.43l5.37,7.91c-4.52,4.15-11.68,6.31-18.75,6.31C229.96,100,219.51,90.67,219.51,76.07Zm23.55-14c-7.44,0-10.65,5.18-11.12,9.7h22.42c-.37-4.37-3.39-9.74-11.3-9.74Zm58.78,36.8v-4.8c-3.11,3.77-8.48,5.94-14.41,5.94-7.25,0-15.73-4.9-15.73-15.07,0-10.74,8.48-14.7,15.73-14.7,6.12,0,11.4,2,14.41,5.56V70.05c0-4.62-4-7.63-10-7.63a19.13,19.13,0,0,0-13.1,5.37l-4.71-8.38a29.38,29.38,0,0,1,19.88-7.16c10.46,0,20,4.15,20,17.24V98.88Zm0-10.93V82.29c-2-2.64-5.75-4.05-9.61-4.05-4.71,0-8.57,2.54-8.57,6.88s3.86,6.78,8.57,6.78C296.1,91.9,299.87,90.58,301.84,87.94Zm80.27,10.93V70.14c0-4.24-1.88-7.25-6.78-7.25-4.24,0-7.73,2.83-9.42,5.28V98.88H353.85V70.14c0-4.24-1.88-7.25-6.78-7.25-4.15,0-7.63,2.83-9.42,5.28V98.88h-12V53.38h12v5.84a20.39,20.39,0,0,1,14.88-7c6.69,0,11,3.11,12.62,8.2a19.49,19.49,0,0,1,15.64-8.2c8.38,0,13.38,4.43,13.38,13.75V98.85Zm63.87,0-9.61-31-9.61,31H413.95L400.1,53.37h12.44l8.48,30.62,10-30.62h10.65l10,30.62,8.48-30.62h12.53l-13.91,45.5Zm29.68-22.8c0-12.91,9-23.83,24-23.83s24.11,10.92,24.11,23.83-9,23.93-24.12,23.93S475.66,88.98,475.66,76.07Zm35.71,0c0-7.07-4.15-13.19-11.68-13.19S488.1,69,488.1,76.07s4.14,13.28,11.59,13.28,11.67-6.12,11.67-13.28Zm21.4,22.8V53.37h12V59.5c3.3-4,8.86-7.25,14.51-7.25V63.93a15.271,15.271,0,0,0-3.3-.28c-4,0-9.23,2.26-11.21,5.18V98.88Zm63.38,0L584.09,81.35l-5.46,5.84V98.87h-12V36.03h12V73.62l17.24-20.25h14.7L592.57,74l18.56,24.87Z" transform="translate(0 -0.008)" fill="#fff"/>
  <path class="text-chat" d="M619,76.06c0-13.25,8.65-23.78,22-23.78,7.9,0,12.41,3.1,16.07,7.71l-3.38,3a14.36,14.36,0,0,0-12.41-6.3c-10.62,0-17.11,8.46-17.11,19.36s6.49,19.45,17.11,19.45a14.45,14.45,0,0,0,12.41-6.39l3.38,3c-3.67,4.7-8.18,7.8-16.07,7.8C627.65,99.93,619,89.31,619,76.06ZM699.37,98.8V67.88c0-8.74-4.42-11.19-11-11.19-5.83,0-11.84,3.67-14.76,7.8V98.8h-4.84V36.11h4.89V60.27c3.29-3.95,9.78-8,16.36-8,9.21,0,14.29,4.32,14.29,14.57v32Zm49.72,0V93.44c-4,4.42-9.12,6.49-15.42,6.49-7.8,0-15.88-5.36-15.88-15.13s8-15,15.88-15c6.3,0,11.47,2.07,15.42,6.49V67.08c0-6.77-5.45-10.43-12.12-10.43-5.73,0-10.15,2-14.29,6.67l-2.73-3.38a22,22,0,0,1,17.48-7.61c9.21,0,16.54,4.42,16.54,14.57v32Zm0-8.93v-10c-3.2-4.23-8.27-6.3-13.72-6.3-7.43,0-12.41,4.79-12.41,11.28s5,11.19,12.41,11.19c5.45.04,10.53-2.03,13.72-6.16Zm21.81.19V57.73h-7.52V53.4h7.52V41h5V53.4h9.21v4.32H775.9V89.3c0,3.67,1.5,6.2,4.7,6.2a7.09,7.09,0,0,0,5.08-2.16l1.88,3.76a10.21,10.21,0,0,1-7.71,2.82C773.77,99.93,770.9,96.27,770.9,90.06Z" transform="translate(0 -0.008)" fill="#ff3454"/>
  <path class="shape-front" d="M130.57,34.81c-1.2-10.6-8.84-17.61-19.2-19.3L19.2.08C8.7-.92,0,8.72,0,19.37l3.84,84.9c0,10.66,8.52,21.39,19.2,19.3l47.61-10-3.44,19.61L94.6,108.55l20.61-4.32C126,101.34,135,95.3,134.41,84.94Z" transform="translate(0 -0.008)" fill="#ff3454"/>
  <path class="shape-back" d="M148.68,30.95l-11.44.28c.19.91.34,1.83.45,2.78v.26l3.84,50.17v.14c.71,12.54-8.21,22.24-24.49,26.61l-.19.05h-.2l-15.3,3.2,27.28,24.52-3.86-22.02,16.77,2.76c8.76.91,15.18-7.38,16.46-16.58l7.14-55.62C166.11,38.36,158.21,30.95,148.68,30.95Z" transform="translate(0 -0.008)" style="fill: rgb(255, 101, 125);"/>
  <path class="shape-tw" d="M28.436,34.153a6.772,6.772,0,0,0-2.394,4.936c-.3,3.934.141,6.725-.673,7.3-1.251.928-3.692-.558-5.784,1.345a4.5,4.5,0,0,0-1.5,3.625A5.225,5.225,0,0,0,20.1,55.519c2.529,1.93,4.035.874,5.38,2.327a3.43,3.43,0,0,1,.632,2.334c-.155,6.725-.108,22.193,0,23.262.175,2.018.531,10.626,4.58,13.45s8.01,2.172,12.576,1.345c4.694-.82,15.972-2.744,15.972-2.744A13.809,13.809,0,0,1,52.9,90.886a11.009,11.009,0,0,1-1.54-4.613c-.269-2.461-1.015-24.667-1-25.1,0-.551.04-1.829,2.2-1.782a36.637,36.637,0,0,0,3.692.047c1.089-.134,2.219-1.627,2.219-3.4,0-3.813-4.035-4.607-4.627-4.647s-2.966-.37-3.6-1.493c-.942-1.681-.511-4.667-.673-6.234a10.168,10.168,0,0,0-2.145-5.333,7.727,7.727,0,0,0-2.979-2.354,33.679,33.679,0,0,0-11.17-3.026A6.534,6.534,0,0,0,28.436,34.153ZM34.03,18.03c2.808-1.621,6.787.014,8.887,3.652s1.527,7.9-1.281,9.522-6.787-.014-8.887-3.652S31.222,19.651,34.03,18.03Zm32,6.349c2.525-1.458,6.1.012,7.992,3.283s1.373,7.1-1.152,8.563-6.1-.012-7.992-3.283S63.5,25.836,66.026,24.379Zm47.327,37.8c-.955-7.936-1.97-13.84-1.97-13.84a5.669,5.669,0,0,0-3.719-4.512,19.254,19.254,0,0,0-4.338-.787c-3.154-.343-3.1,2.8-2.986,4.149.276,3.221,3.436,34.762,3.363,35.643a.915.915,0,0,1-1.533.491c-.4-.639-3.732-31.87-3.88-32.758a6.49,6.49,0,0,0-4.149-5.38,30.135,30.135,0,0,0-6.268-1.177,4.081,4.081,0,0,0-3.47,1.406,5.165,5.165,0,0,0-.834,3.167c.182,2.455,2.354,30.518,2.8,37.048.047.673-1.345,1.48-1.789.5-.518-1.17-3.813-35.474-4.035-37.156-.168-1.251-.37-6.6-3.443-8.548-2.34-1.486-9.213-3.114-11.681-2.69-3.484.3-5.481,2.784-5.131,10.888C60.6,56.063,61.631,75,62.148,79.312c.242,2.018.9,7.122,2.549,9.307s3.423,3.6,7.512,3.948,14.956-2.018,17.579-2.273c0,0,18.379-3.235,19.738-3.531,1.237-.269,5.562-.941,5.683-7.8C115.249,75.553,114.153,68.8,113.353,62.177Zm-26.5-29.759c2.245-1.3,5.426.01,7.1,2.918s1.22,6.316-1.025,7.612-5.426-.01-7.1-2.918S84.612,33.714,86.857,32.418Zm14.417-.943c2.245-1.3,5.426.01,7.1,2.918s1.22,6.316-1.025,7.612-5.426-.01-7.1-2.918S99.029,32.771,101.274,31.475Z" transform="translate(0 -0.008)" fill="#fff"/>
</svg>